<svg xmlns="http://www.w3.org/2000/svg" width="330" height="315" fill="none"><path fill="#fff" d="m93.001 183.662-.352-.37 2.217-2.115.353.369L93 183.662Zm4.428-4.243-.358-.364c.72-.71 1.443-1.441 2.148-2.176l.368.354a115.12 115.12 0 0 1-2.158 2.186Zm4.256-4.43-.378-.344a114.18 114.18 0 0 0 2.029-2.288l.386.334c-.672.778-1.357 1.551-2.037 2.298Zm4.015-4.647-.394-.325c.637-.776 1.28-1.579 1.911-2.387l.402.315a125.74 125.74 0 0 1-1.919 2.397Zm3.78-4.84-.409-.305c.599-.805 1.204-1.638 1.798-2.474l.416.295c-.595.84-1.202 1.675-1.805 2.484Zm3.555-5.006-.423-.286c.572-.845 1.136-1.695 1.69-2.55l.429.277a159.52 159.52 0 0 1-1.696 2.559Zm27.984-3.542a7.484 7.484 0 0 1-2.752-.524l.19-.474a6.967 6.967 0 0 0 2.562.488c.127-.012.221-.003.331-.008l.025.51c-.119.006-.26-.002-.356.008Zm3.392-.872-.256-.443a5.531 5.531 0 0 0 2.037-2.057l.443.254a6.06 6.06 0 0 1-2.224 2.246Zm-28.037-.738-.434-.269c.538-.866 1.067-1.738 1.588-2.615l.439.261c-.522.879-1.053 1.754-1.593 2.623Zm19.305-.711c-.688-.739-1.253-1.631-1.682-2.65l.471-.198c.405.964.938 1.805 1.585 2.5l-.374.348Zm11.802-3.841-.511-.011.002-.136a5.303 5.303 0 0 0-.705-2.667l.444-.252a5.817 5.817 0 0 1 .772 2.919l-.002.147Zm-27.767-.535-.392-.329a19.416 19.416 0 0 1 2.177-2.21l.334.385a18.905 18.905 0 0 0-2.119 2.154Zm13.494-1.298a12.258 12.258 0 0 1-.088-1.478c0-.54.034-1.093.104-1.642l.506.064c-.066.528-.1 1.059-.1 1.578 0 .477.029.953.085 1.417l-.507.061Zm-8.94-2.643-.268-.434a21.102 21.102 0 0 1 2.75-1.431l.202.47c-.935.402-1.838.871-2.684 1.395Zm20.035-.527a11.201 11.201 0 0 0-2.61-1.453l.191-.474c1.031.416 1.949.927 2.729 1.521l-.31.406Zm-14.494-1.865-.134-.493c.998-.271 2.02-.473 3.04-.6l.063.507c-.996.124-1.994.321-2.969.586Zm8.992-.423a18.44 18.44 0 0 0-3.003-.316l.012-.51c1.053.025 2.091.134 3.086.324l-.095.502Zm-4.366-.517-.481-.172c.349-.97.802-1.913 1.349-2.805l.435.267a14.798 14.798 0 0 0-1.303 2.71Zm3.123-5.107-.375-.348a16.583 16.583 0 0 1 2.327-2.062l.301.412a16.124 16.124 0 0 0-2.253 1.998Zm4.834-3.562-.227-.457a19.051 19.051 0 0 1 2.884-1.146l.149.488c-.964.295-1.908.67-2.806 1.115Zm5.762-1.876-.127-.495c.999-.255 1.993-.523 2.953-.796l.139.492c-.964.273-1.962.542-2.965.799Zm5.909-1.679-.154-.488c.986-.31 1.962-.633 2.902-.961l.168.482c-.945.33-1.926.655-2.916.967Zm5.8-2.029-.184-.477a80.53 80.53 0 0 0 2.827-1.157l.202.469c-.926.4-1.883.792-2.845 1.165Zm5.643-2.437-.221-.461 2.756-1.338.224.459-2.759 1.34Zm5.515-2.68-.224-.459 2.757-1.34.223.459-2.756 1.34Zm5.512-2.679-.223-.46 2.756-1.34.224.46-2.757 1.34Zm5.513-2.68-.224-.46 2.757-1.34.223.46-2.756 1.34Zm5.512-2.68-.223-.46 2.756-1.339.224.459-2.757 1.34Z"/><path fill="url(#a)" d="M178.14 50.594c0 .106 0 .206.013.312h67.171c-.174-5.538-4.994-9.977-10.906-9.977a11.4 11.4 0 0 0-5.226 1.253c.082-4.309-1.989-8.437-5.805-10.65-5.724-3.318-13.214-1.067-16.718 5.031a13.415 13.415 0 0 0-1.765 5.78c-2.793-1.277-6.254-2.038-10.008-2.038-9.254 0-16.756 4.608-16.756 10.289Z"/><path fill="url(#b)" d="M67.184 165.594c0 .106 0 .206-.013.312H0c.174-5.538 4.995-9.978 10.906-9.978 1.896 0 3.673.456 5.226 1.254-.081-4.309 1.99-8.437 5.805-10.651 5.725-3.317 13.214-1.066 16.718 5.032a13.424 13.424 0 0 1 1.765 5.781c2.794-1.278 6.255-2.039 10.008-2.039 9.255 0 16.756 4.608 16.756 10.289Z"/><path fill="#fff" fill-opacity=".2" d="M174.699 187.038c0 6.527 5.292 11.819 11.82 11.819h131.283c6.527 0 11.82-5.292 11.82-11.819v-79.877H174.699v79.877Z"/><path fill="url(#c)" d="M278.43 109.718c-43.029 40.465-73.543 51.376-111.984 55.278l-2.554 40.862 40.351 13.791c35.244-1.021 69.085-52.042 89.988-95.812l-15.801-14.119Z" opacity=".7"/><path fill="#fff" fill-opacity=".3" d="M286.474 110.663c-4.138 5.485-10.332 10.773-17.652 17.895l9.908-4.701c-1.242 2.278-3.048 5.467-4.054 6.839 2.286-1.221 5.975-3.886 7.205-5.285-.031 1.923-2.133 5.176-3.055 6.949 5.326-5.163 10.197-11.437 11.824-16.902l-4.176-4.795Z" opacity=".4"/><path fill="#D1D1FF" fill-opacity=".2" d="M222.222 138.775c.055 1.28-.002 3.439-1.279 4.179-2.134 1.235-3.812-1.764-4.595-3.271-.935-1.8-.696-4.034 1.417-4.836 2.791-1.061 4.354 1.541 4.457 3.928ZM210.884 126.092a1.788 1.788 0 1 0-.002-3.576 1.788 1.788 0 0 0 .002 3.576Z"/><path fill="#fff" d="M317.802 199.113H186.519c-6.658 0-12.075-5.417-12.075-12.075v-80.132h155.433v80.132c0 6.658-5.417 12.075-12.075 12.075Zm-142.847-91.697v79.622c0 6.377 5.187 11.564 11.564 11.564h131.283c6.377 0 11.564-5.187 11.564-11.564v-79.622H174.955Z"/><mask id="d" width="156" height="94" x="174" y="106" maskUnits="userSpaceOnUse" style="mask-type:alpha"><path fill="#9192FF" d="M317.802 199.113H186.519c-6.658 0-12.075-5.417-12.075-12.075v-80.132h155.433v80.132c0 6.658-5.417 12.075-12.075 12.075Zm-142.847-91.697v79.622c0 6.377 5.187 11.564 11.564 11.564h131.283c6.377 0 11.564-5.187 11.564-11.564v-79.622H174.955Z"/></mask><path fill="#fff" fill-opacity=".2" d="M317.802 76.215H186.519c-6.527 0-11.82 5.29-11.82 11.82v19.126h154.923V88.034c0-6.53-5.293-11.82-11.82-11.82Z"/><path fill="#fff" d="M329.877 107.416H174.444V88.034c0-6.658 5.417-12.075 12.075-12.075h131.283c6.658 0 12.075 5.417 12.075 12.075v19.382Zm-154.922-.51h154.411V88.034c0-6.376-5.187-11.564-11.564-11.564H186.519c-6.377 0-11.564 5.188-11.564 11.564v18.872Z"/><path fill="#fff" fill-opacity=".4" d="M190.305 98.168a6.48 6.48 0 1 0 0-12.962 6.48 6.48 0 0 0 0 12.962ZM209.392 98.168a6.48 6.48 0 1 0 0-12.96 6.48 6.48 0 0 0 0 12.96Z"/><path fill="#fff" fill-opacity=".4" d="M209.392 98.424a6.743 6.743 0 0 1-6.735-6.736 6.742 6.742 0 0 1 6.735-6.735 6.743 6.743 0 0 1 6.735 6.735 6.743 6.743 0 0 1-6.735 6.736Zm0-12.96a6.232 6.232 0 0 0-6.225 6.224 6.232 6.232 0 0 0 6.225 6.224 6.232 6.232 0 0 0 6.225-6.224 6.232 6.232 0 0 0-6.225-6.225ZM258.72 97.873h-25.801a6.185 6.185 0 1 1 0-12.37h25.801a6.185 6.185 0 1 1 0 12.37Z"/><path fill="#fff" fill-opacity=".4" d="M258.72 98.128h-25.801a6.448 6.448 0 0 1-6.44-6.44 6.448 6.448 0 0 1 6.44-6.44h25.801a6.448 6.448 0 0 1 6.441 6.44 6.448 6.448 0 0 1-6.441 6.44Zm-25.801-12.37a5.936 5.936 0 0 0-5.929 5.93c0 3.27 2.66 5.93 5.929 5.93h25.801c3.27 0 5.93-2.66 5.93-5.93 0-3.27-2.66-5.93-5.93-5.93h-25.801Z"/><path fill="#fff" fill-opacity=".2" d="M304.278 278.239h-65.205a7.54 7.54 0 0 1-7.541-7.541v-41.693a7.54 7.54 0 0 1 7.541-7.541h65.205a7.54 7.54 0 0 1 7.542 7.541v41.693a7.542 7.542 0 0 1-7.542 7.541Z"/><path fill="#fff" fill-opacity=".4" d="M254.185 254.628h-8.693v17.655h8.693v-17.655ZM268.743 255.195h-8.693v17.088h8.693v-17.088ZM283.302 246.268h-8.693v26.015h8.693v-26.015ZM297.86 238.636h-8.693v33.647h8.693v-33.647ZM294.999 229.46h-46.646v2.039h46.646v-2.039Z"/><path fill="#FF6150" d="M106.325 163.039a24.214 24.214 0 0 0-8.9-12.781l-1.725-1.27 1.464 30.286 11.319-8.756-2.158-7.479Z"/><path fill="#FFBC96" d="m142.699 199.647-2.514-4.924a5 5 0 0 0-3.118-2.544l-7.399-2.049-19.034-12.152-2.152-7.46-11.318 8.756.102 2.127a11.192 11.192 0 0 0 6.747 9.737l18.481 7.972 8.785.195c2.83.976 3.807 3.417 5.564 2.538.655-.327-1.904-4.539-1.904-4.539l4.246 4.686 3.514-2.343Z"/><path fill="#D28572" d="m110.858 178.18-.446-.379-2.488 2.93.446.379 2.488-2.93Z"/><path fill="#041427" d="m109.595 211.915 13.848-1.222c9.014-.796 16.855 6.483 17.294 16.055l3.129 68.201-19.102.595-15.169-83.629Z"/><path fill="#1B1B43" d="m126.301 294.865.585 18.839h28.307l-13.958-11.616-.879-9.077-14.055 1.854Z"/><path fill="#fff" d="m141.602 302.567-.715-.927-5.954 4.587.714.928 5.955-4.588Z"/><path fill="#D1D1FF" d="m119.858 294.865.586 18.839h28.307l-13.958-11.616-.879-9.077-14.056 1.854Z"/><path fill="#fff" d="m135.137 302.555-.715-.928-5.955 4.588.715.928 5.955-4.588Z"/><path fill="#072448" d="M140.942 296.72h-23.426l-16.697-51.374-2.337-7.192-33.383-.146c-2.061-.03-4.035-.984-5.71-2.396-3.549-2.992-5.183-7.695-4.539-12.293l2.929-20.89 49.593 6.448a22.273 22.273 0 0 1 18.935 17.546l14.635 70.297Z"/><path fill="#1B1B43" d="m105.363 238.154-4.544 7.192-2.337-7.192h6.881Z"/><path fill="#FF6150" d="M99.231 198.646c-.24.966-.491 1.932-.75 2.905l-1.756 7.174-23.134-.961-16.656-.691c-4.416-.181-7.613-4.281-6.711-8.609l7.766-37.371a14.186 14.186 0 0 1 12.556-11.906l19.005-1.956 6.15 1.757c6.002 3.221 6.008 9.06 6.295 12.884 1.259 16.738-.293 26.876-2.764 36.774Z"/><path fill="#1B1B43" d="M83.548 197.451c-.24.966 15.192 3.127 14.934 4.099l-1.757 7.175-23.134-.961c-8.082-6.097-11.11-19.362-14.055-35.983l24.012 25.67Z" opacity=".3"/><path fill="#1B1B43" d="M78.95 158.041c1.013 1.086 2.167 2.034 3.457 2.74 1.285.706 2.683 1.225 4.13 1.395 1.434.187 2.946.066 4.204-.618 1.286-.64 2.104-1.99 2.258-3.452l.228.016a4.728 4.728 0 0 1-.582 2.229 4.443 4.443 0 0 1-1.653 1.653c-1.376.796-3.01.94-4.529.747-1.528-.211-3-.746-4.304-1.542a12.143 12.143 0 0 1-3.385-3.022l.176-.146ZM102.507 180.873l-.437-.031c.42-5.893-.006-13.134-1.268-21.524l.435-.065c1.266 8.421 1.694 15.695 1.27 21.62ZM141.821 201.648h-21.767v4.295h21.767v-4.295Z"/><path fill="#fff" fill-opacity=".6" d="M179.729 205.458H136L156.107 167h43.73l-20.108 38.458Z"/><circle cx="167.5" cy="186.5" r="3.5" fill="url(#e)"/><path fill="#1B1B43" d="M83.767 116.484c-5.124-5.052-14.788-2.929-14.641 5.563-10.542 2.782-11.128 14.349-6.882 20.279l3.66.293.806-4.32 2.123 4.393 10.249.659 4.685-26.867Z"/><path fill="#FFBC96" d="M92.333 135.371v16.135c0 .146-.006.287-.018.427-.252 3.321-3.467 5.67-6.752 4.82a10.892 10.892 0 0 1-8.17-10.635l.082-10.747h14.858Z"/><path fill="#1B1B43" d="M92.333 142.346v9.16c0 .146-.006.287-.018.427-4.316-.708-9.306-5.704-10.524-11.145l10.542 1.558Z"/><path fill="#FFBC96" d="M101.065 136.566a29.205 29.205 0 0 1-.92 3.842c-1.288 4.094-3.602 7.49-7.742 6.899-9.734-1.394-15.151-11.42-15.151-11.42l6.659-7.614 4.469-6.009 13.394 5.786c-.001 0 .07 4.094-.709 8.516Z"/><path fill="#1B1B43" d="M80.131 133.321c4.272-.136 7.576-2.312 8.98-8.492 0 0 9.956 8.59 14.837 4.002 4.087-3.841-2.846-12.68-14.323-13.733-4.18-.383-8.348.922-11.624 3.547-5.562 4.456-6.094 14.823-.896 18.41l3.026-3.734Z"/><path fill="#FFA121" d="M75.129 122.487c-.28-1.01-.071-2.128.38-3.091a6.865 6.865 0 0 1 2.004-2.467 7.071 7.071 0 0 1 2.87-1.342c1.034-.212 2.135-.179 3.091.238-.987.318-1.843.655-2.647 1.071-.802.41-1.544.886-2.238 1.421a12.979 12.979 0 0 0-1.914 1.811 10.749 10.749 0 0 0-1.546 2.359Z"/><path fill="#FFBC96" d="M80.346 137.744c1.708-.683 2.423-2.91 1.597-4.974-.826-2.064-2.88-3.183-4.588-2.499-1.708.684-2.423 2.911-1.597 4.974.826 2.064 2.88 3.183 4.588 2.499Z"/><path fill="#1B1B43" d="M78.85 136.217c.074-.714.079-1.389-.13-2.01-.2-.623-.596-1.166-1.052-1.724l.144-.178a2.99 2.99 0 0 1 1.464 1.724c.24.761.136 1.591-.206 2.254l-.22-.066ZM93.859 135.151c.546 0 .989-.49.989-1.094 0-.605-.443-1.095-.99-1.095-.546 0-.989.49-.989 1.095 0 .604.443 1.094.99 1.094ZM99.048 135.775c.483.059.928-.326.993-.86.066-.535-.272-1.016-.755-1.075-.483-.06-.927.325-.993.86-.066.534.272 1.015.755 1.075ZM94.797 131.309c.04.511-.778.56-1.984.596-1.205.036-2.038.409-2.048.085-.01-.323.882-1.154 2.072-1.355 1.226-.207 1.913.065 1.96.674ZM98.65 131.802c-.09.504.512.634 1.403.79.892.156 1.467.609 1.512.289.044-.32-.522-1.234-1.381-1.553-.887-.328-1.43-.126-1.535.474ZM97.216 135.829c.228.279.483.522.743.77l.395.368c.136.123.284.26.416.466a.843.843 0 0 1 .126.39.77.77 0 0 1-.098.415 1.448 1.448 0 0 1-.472.477c-.35.23-.73.325-1.095.396l-.086-.212c.315-.203.629-.385.873-.596.117-.104.231-.231.273-.328.045-.098.032-.131-.022-.245-.13-.213-.462-.497-.68-.793a3.322 3.322 0 0 1-.574-.999l.2-.109ZM92.258 139.434c.598.682 1.222 1.314 1.971 1.715.745.413 1.593.529 2.49.432l.06.221a3.072 3.072 0 0 1-1.415.267 3.24 3.24 0 0 1-1.412-.407c-.865-.48-1.502-1.256-1.887-2.105l.193-.123Z"/><path fill="#FE5B52" d="M88.746 138.812a2.417 2.417 0 1 0 0-4.834 2.417 2.417 0 0 0 0 4.834ZM101.065 136.566a29.205 29.205 0 0 1-.92 3.842 2.415 2.415 0 0 1 .92-3.842Z" opacity=".2"/><path fill="#FF6150" d="m73.494 165.142-13.958 6.637 4.377 10.378 14.635-6.75-5.054-10.265Z"/><path fill="#C5C5FF" d="M125.198 201.132c-.387-.194-.63-.324-.63-.324l.14-.275s.258.123.632.324l-.142.275Z"/><path fill="#FFBC96" d="M130.986 202.575c-.451.89-3.907-.685-5.517-1.476 1.247.691 3.397 2.05 2.442 2.794-.767.592-2.465-.668-8.029-2.975.843.398 5.815 2.764 4.562 3.66-1.365.972-7.221-1.171-7.221-1.171l-5.078 2.729h-5.856l-21.072.135a15.398 15.398 0 0 1-3.907-.492c-2.5-.639-4.855-1.88-6.852-3.549a17.193 17.193 0 0 1-3.25-3.649 19.483 19.483 0 0 1-1.74-3.256l-5.558-13.166 14.636-6.752 7.637 15.502 25.183 5.47 7.028-1.757c1.511-.381 3.649.258 4.978 1.072 3.245 1.985 8.036 6.032 7.614 6.881Z"/><path fill="#FE5B52" d="M81.691 203.6c0 .767-.135 1.5-.38 2.179-2.501-.638-4.856-1.88-6.853-3.549a17.193 17.193 0 0 1-3.25-3.649 6.428 6.428 0 0 1 4.041-1.423 6.438 6.438 0 0 1 6.442 6.442Z" opacity=".2"/><path fill="#D28572" d="M111.33 196.269a47.828 47.828 0 0 1 5.321-1.459c.903-.186 1.817-.338 2.749-.392a8.381 8.381 0 0 1 1.414.037c.235.047.469.109.703.164.224.079.442.169.663.254 1.713.777 3.206 1.887 4.65 3.029a56.37 56.37 0 0 1 4.13 3.674l.061.06.012.075c.047.277.015.534-.139.792-.094.109-.191.228-.318.281a.907.907 0 0 1-.366.127c-.485.08-.91-.02-1.315-.129-.814-.224-1.541-.596-2.273-.954a34.798 34.798 0 0 1-2.109-1.212c-.696-.413-1.358-.875-2.037-1.313l.31-.495c1.198.711 2.363 1.457 3.477 2.303.553.429 1.101.867 1.572 1.443.113.153.226.307.305.516a.96.96 0 0 1 .07.357.68.68 0 0 1-.151.399c-.184.213-.406.286-.594.332-.195.052-.378.062-.563.081l-.058.005-.062-.026-6.357-2.663.19-.447c1.002.462 1.976.959 2.906 1.568.453.324.93.617 1.264 1.177.076.142.131.358.052.56a.753.753 0 0 1-.378.388c-.293.15-.59.181-.874.197-1.14.026-2.21-.24-3.272-.504-1.059-.28-2.1-.609-3.129-.982l.078-.215c1.027.344 2.072.647 3.125.898 1.05.236 2.131.467 3.175.415.498-.019 1.092-.238.85-.567-.229-.384-.7-.71-1.133-.999-.9-.573-1.878-1.056-2.859-1.492l.19-.446 6.381 2.607-.12-.02c.157-.018.32-.028.458-.067.145-.03.26-.095.3-.144.089-.035-.031-.35-.231-.585-.405-.493-.941-.927-1.477-1.338-1.086-.817-2.25-1.555-3.426-2.246l.309-.494c.674.431 1.327.897 2.013 1.305.676.428 1.368.822 2.067 1.2.707.35 1.421.716 2.161.921.363.104.749.177 1.059.124l.113-.021c.035-.009.056-.031.086-.043.067-.02.088-.073.134-.107a.591.591 0 0 0 .062-.369l.074.134a61.345 61.345 0 0 0-4.066-3.662c-1.41-1.148-2.88-2.261-4.504-3.022l-.618-.245c-.212-.051-.421-.11-.633-.157a7.861 7.861 0 0 0-1.332-.05c-.901.036-1.805.162-2.701.327-1.793.333-3.57.793-5.316 1.331l-.073-.216Z"/><path fill="#1B1B43" d="m64.002 182.359-.184-.399 14.442-6.664-6.015-14.076.404-.172 6.183 14.469-14.83 6.842ZM66.068 244.011h-.766v65.984h.766v-65.984Z"/><path fill="#F8AA4B" d="M84.133 246.939H47.237a4.539 4.539 0 1 1 0-9.078h36.896a4.539 4.539 0 1 1 0 9.078Z"/><path fill="#D1D1FF" d="M81.205 314.289h-31.04v-.749a6.825 6.825 0 0 1 6.825-6.825h17.39a6.824 6.824 0 0 1 6.825 6.825v.749Z"/><path fill="#1B1B43" d="m175.714 313.673-65.402-98.666-.648.389 65.402 98.666.648-.389Z"/><path fill="#1B1B43" d="m175.733 215.389-.648-.389-65.426 98.643.648.389 65.426-98.643Z"/><path fill="#fff" fill-opacity=".2" d="M199.996 205.943H85.402v8.641h114.594v-8.641ZM297.142 52.113c14.391 0 26.057-11.666 26.057-26.056C323.199 11.666 311.533 0 297.142 0c-14.39 0-26.056 11.666-26.056 26.057 0 14.39 11.666 26.056 26.056 26.056Z"/><path fill="#1B1B43" d="m297.151 26.55-14.445-11.324.473-.603 13.954 10.94 7.781-6.589.495.585-8.258 6.992Z"/><defs><linearGradient id="a" x1="211.732" x2="211.732" y1="30" y2="50.906" gradientUnits="userSpaceOnUse"><stop stop-color="#fff" stop-opacity=".29"/><stop offset="1" stop-color="#fff" stop-opacity=".06"/></linearGradient><linearGradient id="b" x1="33.592" x2="33.592" y1="145" y2="165.906" gradientUnits="userSpaceOnUse"><stop stop-color="#fff" stop-opacity=".29"/><stop offset="1" stop-color="#fff" stop-opacity=".06"/></linearGradient><linearGradient id="c" x1="281.5" x2="179" y1="121.5" y2="201.5" gradientUnits="userSpaceOnUse"><stop stop-color="#fff" stop-opacity=".15"/><stop offset="1" stop-color="#fff" stop-opacity=".17"/></linearGradient><linearGradient id="e" x1="167.5" x2="167.5" y1="183" y2="190" gradientUnits="userSpaceOnUse"><stop stop-color="#fff"/><stop offset="1" stop-color="#fff" stop-opacity="0"/></linearGradient></defs></svg>