<svg width="22" height="29" viewBox="0 0 22 29" fill="none" xmlns="http://www.w3.org/2000/svg">
<path d="M17.5851 1.02124H4.35377C2.22464 1.02124 0.498413 2.74726 0.498413 4.87659V18.108C0.498413 20.2371 2.22444 21.9633 4.35377 21.9633H13.7964L17.8651 27.5819V21.9492C19.8632 21.8054 21.4405 20.1429 21.4405 18.1082V4.87659C21.4405 2.74726 19.7145 1.02124 17.5851 1.02124Z" fill="white"/>
<path d="M18.1204 28.3697L13.666 22.2185H4.35396C2.08734 22.2185 0.243225 20.3744 0.243225 18.1078V4.87661C0.243225 2.60998 2.08713 0.765869 4.35396 0.765869H17.5851C19.8518 0.765869 21.6959 2.60998 21.6959 4.87661V18.108C21.6959 20.1707 20.1435 21.9151 18.1204 22.1797V28.3697V28.3697ZM4.35376 1.27665C2.36868 1.27665 0.753797 2.89152 0.753797 4.87661V18.108C0.753797 20.0929 2.36868 21.7079 4.35376 21.7079H13.9267L17.6095 26.7939V21.7116L17.8463 21.6947C19.7184 21.5598 21.1849 19.9844 21.1849 18.1082V4.87661C21.1849 2.89172 19.57 1.27665 17.5849 1.27665H4.35376Z" fill="#F8AA4B"/>
<path d="M10.6982 18.3017L5.4021 10.6515L6.66188 9.77905L10.5597 15.409L16.4298 4.90399L17.7676 5.65176L10.6982 18.3017Z" fill="#F8AA4B"/>
</svg>
