<svg xmlns="http://www.w3.org/2000/svg" width="89" height="98" fill="none"><path fill="#FFA121" d="M30.491 64.244C23.495 72.521 12.944 80.438.501 91.131l16.979-6.92c-2.082 3.45-5.114 8.279-6.815 10.35 3.914-1.807 10.212-5.781 12.297-7.888-.001 2.94-3.543 7.858-5.087 10.544 9.057-7.75 17.296-17.213 19.958-25.526l-7.342-7.447Z"/><path fill="#FF6150" d="M57.376 16.117c-10.346 9.056-28.19 2.814-33.735 10.046L39.486 38.71l17.89-22.593Z"/><path fill="#FF6150" d="M23.641 26.163a6.123 6.123 0 0 0 1.12 6.182l11.227 12.86 3.498-6.495L23.64 26.163ZM80.826 34.686c-6.444 12.147 3.722 28.085-2.046 35.14L62.935 57.28l17.891-22.593Z"/><path fill="#FF6150" d="M78.78 69.826a6.124 6.124 0 0 1-6.274.328l-15.091-7.981 5.52-4.894L78.78 69.826Z"/><path fill="#072448" d="M88.876.55 74.769 5.728l12.3 9.74L88.875.55Z"/><path fill="#F8AA4B" d="M87.068 15.468c-1.97 22.322-18.463 43.15-38.495 54.719l-18.255-14.44c7.66-24.1 21.925-41.345 44.451-50.019l12.3 9.74Z"/><path fill="#FF6150" d="M30.318 55.747 22.4 61.229 45.05 79.164l3.524-8.977-18.255-14.44Z"/><path fill="#fff" d="M69.473 33.524a8.472 8.472 0 1 0 0-16.944 8.472 8.472 0 0 0 0 16.944Z"/><path fill="#9192FF" d="m70.114 31.056-.054-.508a5.55 5.55 0 0 0 1.42-.345l.183.477a6.047 6.047 0 0 1-1.55.376Zm-1.595-.04a5.982 5.982 0 0 1-1.529-.458l.21-.465c.445.2.916.341 1.399.418l-.08.504Zm4.542-1.106-.303-.41c.391-.29.744-.631 1.05-1.017l.4.318a6.04 6.04 0 0 1-1.147 1.11Zm-7.424-.195a6.018 6.018 0 0 1-1.088-1.167l.416-.295c.282.396.617.755.996 1.067l-.324.395Zm9.194-1.875-.453-.236c.226-.434.393-.895.497-1.373l.499.109a6.036 6.036 0 0 1-.543 1.5Zm-11.026-.703c-.183-.5-.3-1.024-.347-1.557l.509-.045c.043.488.15.968.318 1.425l-.48.177Zm11.19-2.362a5.605 5.605 0 0 0-.266-1.436l.486-.158a6.08 6.08 0 0 1 .29 1.568l-.51.026Zm-10.964-.7-.503-.089a5.988 5.988 0 0 1 .487-1.52l.461.22c-.209.44-.36.908-.445 1.39Zm10.067-2.053a5.514 5.514 0 0 0-.955-1.104l.339-.382c.4.355.752.761 1.043 1.206l-.427.28Zm-8.827-.561-.388-.332a6.028 6.028 0 0 1 1.186-1.067l.289.422a5.52 5.52 0 0 0-1.087.977Zm6.662-1.36a5.501 5.501 0 0 0-1.382-.472l.099-.501a6.016 6.016 0 0 1 1.51.515l-.227.457Zm-4.271-.272-.167-.483a6.094 6.094 0 0 1 1.562-.318l.036.51c-.489.034-.97.132-1.431.29Z"/><path fill="#072448" d="m27.726 78.187-.404-.32a1.378 1.378 0 0 1-.224-1.93l15.888-20.064a1.379 1.379 0 0 1 1.93-.225l.404.32c.593.47.694 1.338.224 1.93L29.657 77.962a1.378 1.378 0 0 1-1.93.225Z"/></svg>